solid shape
  facet normal 0 0 -1
    outer loop
      vertex 0 0 0
      vertex 0 545 0
      vertex 727 545 0
    endloop
  endfacet
  facet normal 0 0 -1
    outer loop
      vertex 0 0 0
      vertex 727 545 0
      vertex 727 0 0
    endloop
  endfacet
  facet normal 0 0 1
    outer loop
      vertex 0 0 50
      vertex 727 545 50
      vertex 0 545 50
    endloop
  endfacet
  facet normal 0 0 1
    outer loop
      vertex 0 0 50
      vertex 727 0 50
      vertex 727 545 50
    endloop
  endfacet
  facet normal 1 0 0
    outer loop
      vertex 0 0 0
      vertex 0 545 0
      vertex 0 545 50
    endloop
  endfacet
  facet normal 1 0 0
    outer loop
      vertex 0 0 0
      vertex 0 545 50
      vertex 0 0 50
    endloop
  endfacet
  facet normal 0 -1 0
    outer loop
      vertex 0 545 0
      vertex 727 545 0
      vertex 727 545 50
    endloop
  endfacet
  facet normal 0 -1 0
    outer loop
      vertex 0 545 0
      vertex 727 545 50
      vertex 0 545 50
    endloop
  endfacet
  facet normal -1 0 0
    outer loop
      vertex 727 545 0
      vertex 727 0 0
      vertex 727 0 50
    endloop
  endfacet
  facet normal -1 0 0
    outer loop
      vertex 727 545 0
      vertex 727 0 50
      vertex 727 545 50
    endloop
  endfacet
  facet normal 0 1 0
    outer loop
      vertex 727 0 0
      vertex 0 0 0
      vertex 0 0 50
    endloop
  endfacet
  facet normal 0 1 -0
    outer loop
      vertex 727 0 0
      vertex 0 0 50
      vertex 727 0 50
    endloop
  endfacet
endsolid shape
